IDResults
version=1
nRows=55
nColumns=4
inDegrees=yes
endheader
time	knee_angle_r	ankle_angle_r	subtalar_angle_r
0.4	23.3895669	-1.8523497	18.73561173
0.405	25.19918278	-3.48704806	15.49348669
0.41	27.14901447	-4.49160745	13.27753754
0.415	28.9749441	-5.66999949	11.37878247
0.42	30.78850225	-6.95153505	9.05091942
0.425	32.97421797	-7.91898816	7.98831895
0.43	35.07684051	-8.73024611	6.83449603
0.435	37.11369683	-9.91121396	6.22563943
0.44	39.36883545	-10.69973567	5.14461266
0.445	41.69653033	-11.09107251	4.20600227
0.45	43.75133713	-13.09926772	4.18293871
0.455	45.83667183	-14.41326718	4.05862948
0.46	47.7924262	-15.64893635	3.31092692
0.465	49.76010133	-17.26494945	2.16904606
0.47	51.36769195	-19.11681554	1.56627062
0.475	53.0896011	-20.92245001	0.35894485
0.48	54.77314656	-22.1567325	-0.67580793
0.485	56.3406181	-24.25333664	-1.69977835
0.49	57.94923452	-25.80030513	-4.0979957
0.495	59.6478889	-27.32370104	-6.11162074
0.5	61.11744578	-29.35305712	-7.97428499
0.505	63.31851524	-29.54134085	-10.96735677
0.51	65.45948733	-30.85913331	-12.64805699
0.515	67.56677698	-31.91492061	-15.03132188
0.52	69.9114412	-32.88596004	-17.97795184
0.525	71.93068311	-35.16734028	-20.70427063
0.53	73.90230174	-36.81007016	-24.9459195
0.535	78.02292025	-31.50276237	-23.3206196
0.54	80.75779516	-33.29622106	-25.78873036
0.545	83.20095987	-35.05828042	-30.26732336
0.55	88.2924329	-24.68683387	-25.53905832
0.555	90.67856578	-27.2446723	-26.82005941
0.56	93.5641397	-27.71505547	-26.97998507
0.565	96.36129373	-23.91208959	-27.39958806
0.57	98.60871738	-24.11483533	-29.86679608
0.575	99.60853804	-27.71123824	-29.28515181
0.58	100.8999819	-27.39690152	-26.8593107
0.585	102.3602292	-23.47529859	-26.90741319
0.59	102.0205463	-27.42434766	-27.34966919
0.595	101.568296	-27.41964352	-26.52947483
0.6	100.5035749	-28.42043552	-26.42366937
0.605	99.08695172	-26.93956341	-26.02256444
0.61	96.83494271	-26.97051563	-26.60785491
0.615	94.09801008	-26.95583329	-27.63076929
0.62	90.57267952	-26.691817	-28.54188259
0.625	86.63799301	-26.73347502	-27.48871666
0.63	82.05601926	-27.73842905	-28.24978184
0.635	77.75419666	-23.35669939	-25.89996639
0.64	71.58709512	-27.49778946	-25.84344356
0.645	65.76863099	-28.22911424	-25.15803219
0.65	59.66123649	-28.56928837	-22.42913061
0.655	52.81810731	-30.06644827	-21.92049538
0.66	47.24778216	-27.64730459	-19.62021562
0.665	41.3910141	-35.14177707	-20.88955827
0.67	36.87001973	-45.27474998	-23.86888553
